<svg id="svg" version="1.1" xmlns="http://www.w3.org/2000/svg" xmlns:xlink="http://www.w3.org/1999/xlink" width="400" height="400" viewBox="0, 0, 400,400"><g id="svgg"><path id="path0" d="M189.070 45.644 C 95.359 52.843,29.584 139.634,48.341 231.339 C 64.061 308.195,136.180 361.694,213.998 354.224 C 319.882 344.060,384.306 234.112,341.287 136.991 C 315.201 78.100,252.942 40.737,189.070 45.644 M217.641 62.668 C 301.845 74.803,355.742 155.792,333.474 236.724 C 332.182 241.420,329.315 249.911,328.872 250.354 C 327.807 251.419,315.055 243.230,309.523 237.929 C 299.799 228.611,294.035 218.791,285.123 196.357 C 274.119 168.658,267.630 158.129,257.465 151.475 C 244.061 142.701,226.320 145.827,215.607 158.849 C 213.530 161.374,212.848 161.915,212.848 161.037 C 212.848 160.805,211.541 157.310,209.944 153.271 C 197.911 122.826,186.223 110.768,168.744 110.768 C 152.505 110.768,141.366 121.110,130.465 146.309 C 127.934 152.160,126.304 156.394,117.990 178.715 C 103.960 216.379,92.039 234.805,74.150 246.474 C 69.926 249.230,70.334 249.557,67.737 241.314 C 41.204 157.087,98.966 71.311,188.495 61.991 C 192.346 61.590,213.584 62.084,217.641 62.668 M172.797 133.504 C 179.950 136.180,186.513 148.158,197.499 178.585 L 200.291 186.317 195.789 197.569 C 179.952 237.155,165.400 252.275,133.653 262.132 C 127.169 264.146,125.823 265.444,128.091 267.496 C 130.443 269.625,152.598 266.461,163.275 262.471 C 183.728 254.829,200.845 237.754,210.038 215.824 C 211.374 212.638,211.226 212.620,212.996 216.196 C 228.400 247.326,249.524 264.820,275.168 267.681 C 282.398 268.488,284.187 268.122,284.174 265.840 C 284.165 264.230,283.782 263.930,280.169 262.709 C 256.545 254.724,237.393 229.726,222.772 187.796 C 221.516 184.192,230.566 170.993,235.966 168.553 C 246.686 163.709,253.518 171.535,266.172 203.154 C 279.211 235.736,292.747 250.274,319.170 260.076 C 324.437 262.030,324.222 261.479,321.572 266.223 C 278.874 342.666,180.861 362.089,112.823 307.589 C 99.017 296.530,85.344 279.915,77.529 264.703 L 75.575 260.898 80.270 258.597 C 102.795 247.560,119.284 228.480,132.234 198.466 C 134.689 192.776,135.856 189.754,141.661 174.056 C 154.832 138.443,161.787 129.385,172.797 133.504 " stroke="none" fill="#f46404" fill-rule="evenodd"></path><path id="path1" d="M0.000 200.000 L 0.000 400.000 200.000 400.000 L 400.000 400.000 400.000 200.000 L 400.000 0.000 200.000 0.000 L 0.000 0.000 0.000 200.000 M215.340 45.864 C 286.803 52.879,344.741 109.258,353.762 180.561 C 366.875 284.203,274.885 371.366,172.196 352.602 C 108.800 341.018,58.805 290.947,47.390 227.606 C 29.168 126.502,112.973 35.814,215.340 45.864 M192.905 61.974 C 104.626 68.023,44.417 149.676,65.962 234.132 C 67.218 239.055,69.994 248.008,70.408 248.469 C 70.481 248.550,72.531 247.291,74.963 245.671 C 84.816 239.110,94.498 227.972,101.998 214.573 C 108.082 203.704,111.495 195.732,120.797 170.662 C 131.768 141.089,136.412 131.469,143.991 122.613 C 151.117 114.287,158.653 110.642,168.744 110.642 C 186.453 110.642,198.080 122.550,209.938 152.828 C 211.343 156.414,212.663 159.756,212.873 160.255 C 213.241 161.128,213.369 161.039,216.388 157.812 C 225.592 147.975,236.947 144.215,248.322 147.237 C 263.152 151.177,271.870 162.643,284.944 195.398 C 297.544 226.966,306.927 239.522,324.519 248.357 C 328.973 250.594,328.724 250.690,330.330 246.117 C 359.797 162.200,303.868 72.991,215.340 62.705 C 210.408 62.132,196.981 61.694,192.905 61.974 M164.232 133.837 C 157.154 137.049,151.487 147.725,139.390 180.633 C 123.430 224.050,106.330 246.536,79.674 259.159 C 77.617 260.133,75.935 261.028,75.935 261.148 C 75.935 261.781,81.731 271.863,84.512 276.069 C 115.181 322.449,170.127 345.970,224.736 336.098 C 265.765 328.680,301.867 302.429,321.613 265.655 C 322.904 263.252,323.468 261.839,323.178 261.743 C 294.018 252.045,279.539 237.146,265.785 202.685 C 254.988 175.632,249.346 167.801,240.652 167.799 C 234.580 167.798,229.862 172.128,224.410 182.706 L 222.479 186.452 223.570 189.412 C 239.255 231.951,256.598 254.362,280.153 262.531 C 283.905 263.832,284.638 264.403,284.486 265.906 C 284.252 268.222,283.040 268.598,277.345 268.122 C 251.236 265.936,230.176 249.535,214.239 218.977 L 211.433 213.597 208.312 219.856 C 193.069 250.416,170.079 265.820,136.337 268.080 C 129.147 268.561,128.011 268.389,127.242 266.703 C 126.391 264.834,127.384 263.890,131.544 262.614 C 160.930 253.599,176.940 239.594,189.609 211.823 C 192.603 205.257,199.974 186.791,199.913 186.005 C 199.846 185.133,190.936 161.520,188.769 156.472 C 180.305 136.747,172.890 129.907,164.232 133.837 " stroke="none" fill="#fcfcfc" fill-rule="evenodd"></path><path id="path2" d="M198.572 45.152 C 199.474 45.233,200.855 45.232,201.640 45.149 C 202.425 45.067,201.687 45.001,200.000 45.002 C 198.313 45.003,197.670 45.071,198.572 45.152 M193.001 62.009 C 193.370 62.106,193.974 62.106,194.343 62.009 C 194.712 61.913,194.410 61.834,193.672 61.834 C 192.934 61.834,192.632 61.913,193.001 62.009 M205.657 62.009 C 206.026 62.106,206.630 62.106,206.999 62.009 C 207.368 61.913,207.066 61.834,206.328 61.834 C 205.590 61.834,205.288 61.913,205.657 62.009 M90.307 90.604 L 87.248 93.768 90.412 90.709 C 93.351 87.868,93.751 87.440,93.471 87.440 C 93.414 87.440,91.990 88.864,90.307 90.604 M167.881 132.965 C 168.356 133.056,169.132 133.056,169.607 132.965 C 170.081 132.873,169.693 132.799,168.744 132.799 C 167.795 132.799,167.407 132.873,167.881 132.965 M159.707 137.009 L 158.581 138.255 159.827 137.129 C 160.513 136.509,161.074 135.948,161.074 135.882 C 161.074 135.586,160.757 135.847,159.707 137.009 M239.981 146.388 C 240.455 146.479,241.232 146.479,241.707 146.388 C 242.181 146.296,241.793 146.221,240.844 146.221 C 239.895 146.221,239.506 146.296,239.981 146.388 M231.424 171.908 L 230.297 173.154 231.544 172.028 C 232.229 171.408,232.790 170.848,232.790 170.782 C 232.790 170.485,232.474 170.746,231.424 171.908 M44.960 194.056 C 44.960 194.794,45.038 195.096,45.135 194.727 C 45.231 194.358,45.231 193.754,45.135 193.384 C 45.038 193.015,44.960 193.317,44.960 194.056 M354.894 200.192 C 354.894 202.828,354.955 203.907,355.030 202.589 C 355.105 201.270,355.105 199.113,355.030 197.795 C 354.955 196.477,354.894 197.555,354.894 200.192 M44.960 206.328 C 44.960 207.066,45.038 207.368,45.135 206.999 C 45.231 206.630,45.231 206.026,45.135 205.657 C 45.038 205.288,44.960 205.590,44.960 206.328 M85.319 237.105 L 83.030 239.501 85.427 237.212 C 87.653 235.086,87.999 234.708,87.716 234.708 C 87.656 234.708,86.578 235.786,85.319 237.105 M170.257 241.131 L 168.936 242.570 170.374 241.248 C 171.713 240.018,171.988 239.693,171.696 239.693 C 171.631 239.693,170.984 240.340,170.257 241.131 M255.801 247.172 C 256.516 247.910,257.188 248.514,257.293 248.514 C 257.399 248.514,256.900 247.910,256.184 247.172 C 255.469 246.433,254.797 245.829,254.691 245.829 C 254.586 245.829,255.085 246.433,255.801 247.172 M234.516 247.747 C 235.340 248.591,236.100 249.281,236.206 249.281 C 236.311 249.281,235.723 248.591,234.899 247.747 C 234.075 246.903,233.315 246.213,233.210 246.213 C 233.104 246.213,233.692 246.903,234.516 247.747 M130.304 268.351 C 130.993 268.436,132.029 268.434,132.605 268.347 C 133.181 268.259,132.617 268.190,131.352 268.192 C 130.086 268.194,129.615 268.265,130.304 268.351 M280.063 268.348 C 280.646 268.436,281.509 268.434,281.980 268.343 C 282.452 268.252,281.975 268.180,280.920 268.183 C 279.866 268.185,279.480 268.260,280.063 268.348 M297.399 298.082 L 295.110 300.479 297.507 298.190 C 298.826 296.931,299.904 295.853,299.904 295.793 C 299.904 295.510,299.526 295.856,297.399 298.082 M192.234 355.010 C 192.603 355.107,193.207 355.107,193.576 355.010 C 193.945 354.914,193.643 354.835,192.905 354.835 C 192.167 354.835,191.865 354.914,192.234 355.010 M206.424 355.010 C 206.793 355.107,207.397 355.107,207.766 355.010 C 208.135 354.914,207.833 354.835,207.095 354.835 C 206.357 354.835,206.055 354.914,206.424 355.010 " stroke="none" fill="#fcc39b" fill-rule="evenodd"></path><path id="path3" d="M45.021 200.192 C 45.021 203.039,45.081 204.204,45.155 202.780 C 45.229 201.357,45.229 199.027,45.155 197.603 C 45.081 196.179,45.021 197.344,45.021 200.192 M61.502 200.000 C 61.503 202.109,61.567 202.923,61.645 201.809 C 61.722 200.694,61.722 198.969,61.643 197.974 C 61.564 196.979,61.501 197.891,61.502 200.000 M197.619 338.540 C 199.052 338.614,201.295 338.613,202.605 338.539 C 203.914 338.464,202.742 338.403,200.000 338.404 C 197.258 338.405,196.186 338.466,197.619 338.540 M194.727 355.017 C 195.201 355.108,195.978 355.108,196.453 355.017 C 196.927 354.925,196.539 354.850,195.590 354.850 C 194.640 354.850,194.252 354.925,194.727 355.017 M203.547 355.017 C 204.022 355.108,204.799 355.108,205.273 355.017 C 205.748 354.925,205.360 354.850,204.410 354.850 C 203.461 354.850,203.073 354.925,203.547 355.017 " stroke="none" fill="#f4ac7c" fill-rule="evenodd"></path><path id="path4" d="M206.807 45.518 C 207.176 45.615,207.780 45.615,208.150 45.518 C 208.519 45.422,208.217 45.343,207.478 45.343 C 206.740 45.343,206.438 45.422,206.807 45.518 M101.811 102.493 L 99.137 105.273 101.918 102.599 C 104.500 100.115,104.873 99.712,104.592 99.712 C 104.533 99.712,103.282 100.964,101.811 102.493 M146.096 120.326 L 144.775 121.764 146.213 120.443 C 147.004 119.716,147.651 119.068,147.651 119.004 C 147.651 118.711,147.326 118.987,146.096 120.326 M190.988 120.230 C 191.703 120.968,192.375 121.572,192.480 121.572 C 192.586 121.572,192.087 120.968,191.371 120.230 C 190.656 119.492,189.984 118.888,189.878 118.888 C 189.773 118.888,190.272 119.492,190.988 120.230 M240.173 167.474 C 240.542 167.571,241.146 167.571,241.515 167.474 C 241.884 167.378,241.582 167.299,240.844 167.299 C 240.105 167.299,239.803 167.378,240.173 167.474 M61.450 195.206 C 61.450 195.944,61.529 196.246,61.626 195.877 C 61.722 195.508,61.722 194.904,61.626 194.535 C 61.529 194.166,61.450 194.468,61.450 195.206 M338.389 200.192 C 338.389 201.985,338.455 202.718,338.536 201.822 C 338.617 200.925,338.617 199.458,338.536 198.562 C 338.455 197.665,338.389 198.399,338.389 200.192 M61.458 204.986 C 61.462 205.829,61.541 206.129,61.633 205.652 C 61.724 205.175,61.721 204.485,61.625 204.118 C 61.529 203.752,61.454 204.142,61.458 204.986 M106.016 239.789 L 104.890 241.035 106.136 239.909 C 107.298 238.859,107.559 238.543,107.263 238.543 C 107.197 238.543,106.636 239.104,106.016 239.789 M190.207 245.350 L 188.111 247.555 190.316 245.459 C 192.365 243.511,192.697 243.145,192.413 243.145 C 192.353 243.145,191.360 244.137,190.207 245.350 M309.290 309.588 L 306.616 312.368 309.396 309.694 C 311.978 307.210,312.352 306.807,312.070 306.807 C 312.012 306.807,310.761 308.058,309.290 309.588 M193.384 338.519 C 193.754 338.616,194.358 338.616,194.727 338.519 C 195.096 338.423,194.794 338.344,194.056 338.344 C 193.317 338.344,193.015 338.423,193.384 338.519 M205.273 338.519 C 205.642 338.616,206.246 338.616,206.616 338.519 C 206.985 338.423,206.683 338.344,205.944 338.344 C 205.206 338.344,204.904 338.423,205.273 338.519 M198.572 355.027 C 199.474 355.108,200.855 355.107,201.640 355.025 C 202.425 354.942,201.687 354.876,200.000 354.877 C 198.313 354.879,197.670 354.946,198.572 355.027 " stroke="none" fill="#f4a46c" fill-rule="evenodd"></path></g></svg>