<?xml version="1.0" standalone="no"?>
<!DOCTYPE svg PUBLIC "-//W3C//DTD SVG 20010904//EN"
 "http://www.w3.org/TR/2001/REC-SVG-20010904/DTD/svg10.dtd">
<svg version="1.0" xmlns="http://www.w3.org/2000/svg"
 width="400.000000pt" height="400.000000pt" viewBox="0 0 400.000000 400.000000"
 preserveAspectRatio="xMidYMid meet">

<g transform="translate(0.000000,400.000000) scale(0.100000,-0.100000)"
fill="#000000" stroke="none">
<path d="M814 3147 c-2 -7 -3 -116 -2 -242 l3 -230 87 -3 88 -3 2 -364 3 -364
-90 -3 -90 -3 -3 -242 -2 -243 455 0 455 0 0 245 0 245 -100 0 -100 0 0 232
c0 199 2 230 14 218 8 -8 116 -154 241 -325 124 -170 230 -311 233 -312 6 -2
229 297 423 568 31 43 58 76 60 74 2 -2 3 -105 1 -229 l-3 -226 -94 0 -95 0 0
-245 0 -245 450 0 450 0 0 245 0 245 -90 0 -90 0 0 365 0 365 90 0 90 0 0 245
0 245 -347 0 c-192 0 -353 -4 -359 -8 -6 -4 -53 -65 -104 -137 -52 -71 -120
-166 -152 -210 -32 -44 -94 -131 -139 -192 -44 -62 -84 -113 -89 -113 -7 0
-152 196 -404 548 l-80 112 -353 0 c-277 0 -355 -3 -359 -13z"/>
<path d="M1288 1193 c-35 -5 -75 -53 -84 -99 -10 -57 1 -180 19 -208 23 -34
81 -50 151 -42 l56 7 0 90 0 89 -56 0 c-54 0 -55 0 -52 -27 2 -17 9 -28 18
-28 10 0 16 -12 18 -37 2 -29 -1 -38 -16 -42 -32 -11 -51 4 -63 48 -13 49 -6
160 11 182 19 22 53 13 68 -18 10 -21 20 -28 43 -28 25 0 29 4 29 29 0 32 -42
81 -71 81 -9 0 -23 2 -31 3 -7 2 -25 2 -40 0z"/>
<path d="M660 1020 l0 -170 90 0 c89 0 90 0 90 25 0 24 -3 25 -55 25 l-55 0 0
50 0 50 50 0 c47 0 50 2 50 25 0 23 -3 25 -50 25 l-50 0 0 45 0 45 55 0 c52 0
55 1 55 25 0 25 -1 25 -90 25 l-90 0 0 -170z"/>
<path d="M890 1020 l0 -170 35 0 34 0 3 118 c3 114 3 116 17 77 8 -22 27 -75
43 -117 l30 -78 49 0 49 0 0 170 0 170 -35 0 -34 0 -3 -112 -3 -113 -44 113
-44 112 -48 0 -49 0 0 -170z"/>
<path d="M1490 1020 l0 -170 35 0 35 0 0 170 0 170 -35 0 -35 0 0 -170z"/>
<path d="M1627 1184 c-4 -4 -7 -81 -7 -171 l0 -163 35 0 35 0 0 118 c0 76 4
112 10 102 5 -8 25 -61 46 -117 l36 -103 49 0 49 0 0 170 0 170 -35 0 -35 0
-1 -112 0 -113 -43 110 -43 110 -44 3 c-25 2 -48 0 -52 -4z"/>
<path d="M1940 1020 l0 -170 95 0 c95 0 95 0 95 25 0 24 -3 25 -60 25 l-60 0
0 50 0 50 55 0 c52 0 55 1 55 25 0 24 -3 25 -55 25 l-55 0 0 39 c0 43 6 47 67
46 40 0 43 2 43 28 l0 27 -90 0 -90 0 0 -170z"/>
<path d="M2170 1020 l0 -170 95 0 c95 0 95 0 95 25 0 24 -3 25 -60 25 l-61 0
3 50 3 50 53 0 c49 0 52 2 52 24 0 23 -4 25 -52 28 l-53 3 0 40 c0 39 0 39 40
41 75 3 75 3 75 29 0 25 0 25 -95 25 l-95 0 0 -170z"/>
<path d="M2410 1020 l0 -170 35 0 35 0 0 70 c0 62 2 70 19 70 35 0 51 -27 51
-86 l0 -54 35 0 35 0 0 60 c0 50 -4 65 -23 84 l-23 23 24 22 c21 19 24 28 19
68 -7 69 -30 83 -128 83 l-79 0 0 -170z m124 104 c31 -30 9 -84 -35 -84 -16 0
-19 7 -19 50 0 43 3 50 19 50 11 0 27 -7 35 -16z"/>
<path d="M2670 1020 l0 -170 35 0 35 0 0 170 0 170 -35 0 -35 0 0 -170z"/>
<path d="M2800 1020 l0 -170 35 0 35 0 1 118 0 117 46 -117 46 -118 48 0 49 0
0 170 0 170 -35 0 -35 0 -1 -117 c0 -65 -3 -111 -6 -103 -3 8 -24 61 -45 118
l-39 102 -50 0 -49 0 0 -170z"/>
<path d="M3150 1162 c-22 -22 -29 -41 -35 -90 -8 -72 1 -158 21 -189 20 -31
80 -47 148 -39 l56 7 0 90 0 90 -52 -3 c-47 -3 -53 -6 -56 -26 -3 -17 2 -25
18 -29 17 -5 21 -12 18 -42 -2 -28 -8 -37 -24 -39 -42 -6 -54 21 -54 127 0
106 8 126 52 119 14 -2 24 -12 28 -28 4 -19 13 -26 38 -28 30 -3 32 -1 32 28
0 19 -9 40 -25 55 -20 21 -34 25 -80 25 -49 0 -61 -4 -85 -28z"/>
</g>
</svg>
