<?xml version="1.0" standalone="no"?>
<!DOCTYPE svg PUBLIC "-//W3C//DTD SVG 20010904//EN"
 "http://www.w3.org/TR/2001/REC-SVG-20010904/DTD/svg10.dtd">
<svg version="1.0" xmlns="http://www.w3.org/2000/svg"
 width="900.000000pt" height="900.000000pt" viewBox="0 0 900.000000 900.000000"
 preserveAspectRatio="xMidYMid meet">

<g transform="translate(0.000000,900.000000) scale(0.100000,-0.100000)"
fill="#000000" stroke="none">
<path d="M0 4500 l0 -4500 700 0 700 0 3 353 2 352 3 -352 2 -353 660 0 660 0
4 22 c3 13 19 160 36 328 35 335 57 519 59 479 1 -32 -65 -667 -83 -797 l-5
-32 110 0 c60 0 109 1 109 3 0 10 -64 599 -80 737 -11 96 -20 184 -20 194 0
32 -18 5 -23 -34 -2 -19 -3 -1 0 40 11 211 16 197 54 -180 21 -201 48 -454 60
-562 l22 -198 659 0 658 0 0 530 c0 498 -1 530 -17 531 -10 1 -89 1 -175 0
-101 -1 -158 2 -158 9 0 7 122 10 356 10 244 0 353 -3 349 -10 -4 -7 -67 -10
-173 -9 l-167 1 -3 -531 -2 -531 2350 0 2350 0 0 4500 0 4500 -4500 0 -4500 0
0 -4500z m7309 4348 c-22 -62 -78 -221 -124 -353 -46 -132 -107 -305 -135
-385 -28 -80 -69 -194 -90 -255 -21 -60 -61 -173 -88 -250 -27 -77 -85 -243
-130 -370 -91 -262 -123 -347 -129 -342 -3 4 43 139 242 702 58 165 142 401
185 525 43 124 96 275 118 335 22 61 70 199 108 308 38 108 72 197 76 197 4 0
-11 -51 -33 -112z m-5819 -718 l0 -80 -80 0 -80 0 0 80 0 80 80 0 80 0 0 -80z
m4301 -1787 c1 -357 0 -682 -1 -723 -12 -510 -336 -1022 -870 -1375 -136 -90
-296 -174 -375 -198 -46 -13 -56 -13 -105 3 -127 39 -378 187 -545 320 -117
94 -291 271 -371 380 -164 220 -255 426 -311 698 -13 65 -16 193 -20 796 -2
395 -2 724 1 732 5 12 203 14 1301 14 l1295 0 1 -647z m-2309 -2748 l3 -284
50 39 c111 89 257 90 340 2 58 -61 60 -68 65 -333 5 -270 6 -274 66 -285 19
-3 34 -12 34 -20 0 -11 -30 -14 -160 -14 -130 0 -160 3 -160 14 0 8 15 17 35
20 19 4 39 15 45 26 13 25 13 424 0 472 -13 45 -66 104 -102 113 -43 11 -128
-20 -176 -64 l-43 -40 3 -234 c3 -257 4 -262 64 -273 19 -3 34 -12 34 -20 0
-11 -31 -14 -165 -14 -128 0 -165 3 -165 13 0 7 20 18 44 25 32 8 45 17 50 34
3 13 6 242 6 511 l0 487 -29 0 c-54 0 -92 -13 -120 -41 -23 -22 -55 -111 -174
-471 -80 -243 -156 -473 -167 -510 -16 -52 -25 -68 -40 -68 -15 0 -33 46 -110
283 -169 521 -184 567 -192 559 -4 -4 -66 -164 -138 -357 -72 -192 -142 -380
-156 -417 -18 -49 -31 -68 -43 -68 -13 0 -23 18 -38 68 -12 37 -46 146 -76
242 -31 96 -88 279 -127 405 -106 342 -126 385 -187 385 -16 0 -23 6 -23 20 0
19 7 20 190 20 179 0 190 -1 190 -19 0 -14 -10 -20 -39 -25 -59 -9 -65 -23
-42 -98 11 -34 47 -157 81 -273 119 -406 134 -455 141 -442 4 6 59 163 123
347 174 499 190 543 203 548 16 5 21 -9 82 -208 97 -320 142 -466 178 -578
l35 -114 34 104 c70 211 164 529 175 592 11 57 10 68 -5 90 -10 16 -26 26 -40
26 -37 0 -56 10 -56 30 0 16 16 18 173 22 154 4 179 8 237 30 36 14 71 26 77
27 10 1 13 -65 15 -284z m2008 -55 l0 -70 139 0 c77 0 142 -3 144 -7 2 -5 -1
-26 -7 -48 l-12 -40 -133 -3 -132 -3 3 -262 c4 -280 8 -305 55 -326 45 -21
105 -13 157 20 35 21 52 27 59 20 8 -8 -1 -23 -28 -52 -124 -128 -297 -125
-356 5 -17 37 -19 70 -19 319 l0 277 -45 0 c-26 0 -45 5 -45 11 0 12 200 227
213 228 4 1 7 -30 7 -69z m-291 -138 c19 -14 27 -30 29 -60 6 -78 -67 -108
-134 -57 -40 30 -67 32 -105 4 l-29 -20 0 -253 c0 -279 -2 -272 64 -283 21 -3
36 -11 36 -19 0 -11 -32 -14 -165 -14 -133 0 -165 3 -165 14 0 7 14 16 32 20
59 12 58 6 58 281 l0 254 -26 20 c-15 12 -38 21 -51 21 -45 0 -23 32 32 46 28
7 77 24 110 38 l60 24 5 -51 5 -51 27 36 c56 73 155 96 217 50z m-712 3 c26
-5 51 -26 95 -78 1 -1 4 -128 7 -281 6 -255 8 -280 24 -290 15 -9 22 -6 41 17
24 29 52 37 42 11 -3 -9 -6 -22 -6 -31 0 -8 -13 -28 -29 -44 -25 -24 -38 -29
-78 -29 -57 0 -86 17 -111 66 l-17 34 -55 -39 c-71 -49 -119 -64 -188 -59 -49
4 -59 9 -94 46 -33 36 -38 47 -38 90 0 102 83 177 276 250 l99 38 0 107 c0 84
-3 110 -16 122 -35 35 -149 27 -199 -13 -18 -15 -23 -29 -24 -74 -2 -63 -20
-93 -64 -101 -76 -15 -97 65 -36 133 62 68 254 148 324 134 8 -1 29 -5 47 -9z
m1779 -25 c73 -36 126 -91 163 -169 23 -50 26 -68 26 -166 0 -105 -2 -114 -33
-177 -37 -76 -82 -120 -162 -157 -48 -23 -68 -26 -155 -26 -89 0 -106 3 -157
28 -67 33 -121 90 -157 166 -23 50 -26 68 -26 171 0 102 3 121 25 165 28 57
87 126 135 155 93 57 235 62 341 10z m493 -24 c107 83 239 81 333 -4 73 -66
78 -86 78 -342 0 -252 3 -264 65 -276 20 -3 35 -12 35 -20 0 -11 -31 -14 -165
-14 -140 0 -165 2 -165 15 0 9 9 15 23 15 12 0 33 7 45 16 22 15 22 19 22 253
0 231 -1 239 -23 272 -63 94 -207 89 -282 -10 -18 -24 -20 -44 -23 -245 -4
-250 0 -270 56 -283 19 -5 37 -14 40 -21 3 -9 -35 -12 -162 -12 -135 0 -166 3
-166 14 0 8 15 17 35 20 62 12 65 24 65 281 0 256 -4 273 -60 291 -51 17 -47
30 12 48 29 8 80 26 113 40 l60 24 3 -53 3 -54 58 45z m511 -841 c0 -13 -314
-15 -2770 -15 -2456 0 -2770 2 -2770 15 0 13 314 15 2770 15 2456 0 2770 -2
2770 -15z m-2820 -135 c0 -21 -15 -27 -25 -10 -9 14 -41 12 -53 -2 -5 -7 -13
-23 -16 -35 -6 -20 -4 -23 18 -23 14 0 26 -4 26 -10 0 -5 -12 -10 -27 -10 -27
0 -29 -3 -60 -131 -30 -124 -45 -161 -59 -146 -3 3 6 61 20 128 30 141 31 149
11 149 -8 0 -15 5 -15 10 0 6 9 10 19 10 11 0 22 9 26 20 18 56 135 99 135 50z
m-2610 0 c0 -5 -7 -10 -15 -10 -24 0 -21 -190 3 -221 27 -33 78 -30 109 5 20
24 23 37 23 117 0 82 -2 91 -20 96 -37 10 -20 23 30 23 28 0 50 -4 50 -10 0
-5 -6 -10 -14 -10 -10 0 -14 -24 -18 -98 -5 -108 -15 -135 -58 -157 -48 -25
-97 -19 -131 14 -28 29 -29 32 -29 131 0 93 -2 102 -20 107 -39 10 -19 23 35
23 30 0 55 -4 55 -10z m2895 -4 c22 -10 37 -24 41 -41 6 -26 -10 -80 -28 -92
-19 -11 -78 -21 -83 -13 -3 4 8 10 24 13 21 4 32 15 39 37 19 52 -6 90 -59 90
-18 0 -19 -8 -19 -120 0 -98 3 -122 15 -126 31 -12 13 -20 -37 -18 -66 3 -68
3 -40 14 21 9 22 14 22 123 0 107 -1 116 -22 130 -22 15 -20 16 45 16 37 1 83
-5 102 -13z m-2562 -135 l62 -76 3 65 c2 49 -1 67 -12 76 -24 17 -19 24 19 24
19 0 35 -4 35 -10 0 -5 -4 -10 -10 -10 -5 0 -11 -43 -12 -97 -2 -53 -7 -98
-13 -99 -5 -2 -39 32 -75 76 l-65 78 -3 -65 c-2 -37 2 -71 8 -77 17 -17 12
-22 -20 -22 -30 0 -39 9 -20 21 6 3 10 44 10 91 0 66 -3 86 -15 90 -26 10 -16
21 15 16 24 -3 45 -22 93 -81z m387 80 c0 -5 -6 -11 -12 -14 -10 -3 -7 -22 12
-75 13 -40 27 -68 31 -64 4 4 17 35 29 69 18 51 20 66 10 78 -11 13 -7 15 24
15 34 0 49 -14 25 -22 -6 -2 -28 -46 -49 -98 -22 -55 -44 -95 -51 -95 -9 0
-26 35 -44 87 -17 48 -36 93 -43 100 -21 21 -14 28 28 28 22 0 40 -4 40 -9z
m316 -19 c2 -29 -12 -38 -19 -12 -4 15 -14 20 -36 20 -29 0 -31 -2 -31 -40 0
-33 3 -40 19 -40 11 0 23 5 26 10 12 20 25 9 25 -20 0 -34 -5 -37 -26 -15 -24
23 -44 7 -44 -35 0 -32 4 -39 25 -44 30 -8 65 9 65 30 0 8 4 13 9 10 4 -3 6
-17 3 -31 -4 -24 -7 -25 -80 -25 -59 0 -73 3 -64 12 15 15 17 188 2 188 -5 0
-10 5 -10 10 0 7 25 10 68 8 62 -3 67 -5 68 -26z m409 7 c9 -28 -2 -37 -18
-15 -17 23 -51 17 -55 -9 -2 -14 12 -33 43 -58 63 -53 58 -106 -11 -123 -43
-11 -74 3 -74 34 l0 27 18 -23 c25 -33 66 -27 70 9 2 20 -7 34 -43 64 -37 29
-45 43 -43 63 5 48 100 73 113 31z m138 4 c-16 -6 -18 -193 -3 -193 6 0 10 -4
10 -9 0 -5 -17 -7 -37 -6 -51 4 -51 4 -30 16 14 8 17 25 17 95 0 66 -3 86 -15
90 -27 11 -7 20 32 16 21 -3 32 -7 26 -9z m455 -10 c-28 -32 -68 -117 -68
-145 0 -15 8 -31 18 -37 20 -12 19 -12 -30 -15 -36 -3 -49 6 -28 19 19 12 10
65 -20 124 -16 33 -35 61 -42 64 -7 3 6 6 29 6 32 1 41 -2 37 -13 -3 -7 2 -31
11 -52 l16 -39 24 39 c17 28 21 44 14 52 -8 9 -3 13 18 16 36 4 39 2 21 -19z
m1092 -5 c-1 -30 -2 -31 -12 -13 -15 27 -27 33 -49 28 -28 -8 -28 -83 1 -83
10 0 24 8 29 18 8 14 10 9 11 -22 0 -38 -1 -39 -19 -22 -27 24 -41 12 -41 -34
0 -25 5 -40 16 -44 25 -10 61 4 73 27 10 20 10 20 8 -8 l-2 -30 -75 -3 c-60
-2 -72 0 -62 10 19 19 16 167 -5 190 -15 17 -13 18 55 18 l72 0 0 -32z m300
22 c0 -5 -4 -10 -10 -10 -6 0 -10 -38 -10 -94 0 -52 -4 -97 -10 -101 -5 -3
-40 30 -77 75 l-68 80 -3 -67 c-2 -52 1 -70 12 -79 24 -17 19 -22 -19 -21 -35
1 -45 10 -25 22 6 3 10 44 10 90 0 69 -3 86 -17 94 -15 9 -13 10 14 11 27 0
40 -10 95 -76 l63 -77 3 64 c2 48 -1 66 -12 75 -24 17 -19 24 19 24 19 0 35
-4 35 -10z m267 -8 c-13 -15 -17 -39 -17 -110 0 -51 -3 -92 -8 -92 -4 0 -39
37 -77 82 l-70 83 -3 -70 c-2 -54 0 -72 12 -81 23 -17 20 -21 -19 -21 -19 0
-35 4 -35 9 0 4 5 8 10 8 6 0 10 37 10 90 0 74 -3 91 -17 99 -15 9 -12 10 17
11 32 0 41 -7 95 -75 l60 -75 3 66 c2 54 0 69 -15 80 -16 12 -13 13 26 14 42
0 43 -1 28 -18z m181 -9 c4 -26 -13 -31 -22 -8 -7 20 -45 19 -53 -2 -5 -12 6
-27 34 -52 52 -46 67 -75 53 -101 -28 -53 -130 -56 -130 -4 0 29 16 32 23 3 7
-26 54 -23 71 4 9 15 3 25 -41 66 -29 27 -53 56 -53 64 0 26 50 58 84 55 23
-2 32 -9 34 -25z m239 -2 c-27 -31 -67 -116 -67 -143 0 -15 8 -31 18 -37 20
-12 19 -12 -30 -15 -36 -3 -49 6 -28 19 19 12 10 65 -20 124 -16 33 -35 61
-42 64 -7 3 4 6 25 6 22 1 36 -3 32 -9 -3 -5 4 -28 16 -51 l21 -42 26 44 c17
28 21 44 14 47 -25 8 -11 18 18 14 28 -4 29 -6 17 -21z m143 19 c0 -5 -5 -10
-10 -10 -7 0 -10 -33 -8 -92 3 -93 3 -93 30 -96 19 -2 31 3 40 17 17 28 30 27
26 -1 -3 -21 -8 -23 -83 -25 -44 -1 -74 0 -67 3 15 7 17 194 2 194 -5 0 -10 5
-10 10 0 6 18 10 40 10 22 0 40 -4 40 -10z m190 1 c0 -5 -6 -11 -12 -14 -10
-3 -7 -22 11 -78 l24 -74 24 55 c31 70 38 100 24 100 -6 0 -11 5 -11 10 0 6
16 10 37 10 34 0 35 -1 20 -17 -8 -10 -32 -60 -52 -110 -20 -51 -42 -93 -49
-93 -6 0 -24 37 -40 83 -15 45 -37 94 -47 110 l-20 27 46 0 c25 0 45 -4 45 -9z
m271 -88 c17 -54 36 -103 40 -109 12 -15 0 -24 -33 -24 -29 0 -35 9 -19 26 5
5 5 19 0 32 -6 17 -16 22 -43 22 -39 0 -49 -11 -48 -51 1 -24 -3 -28 -21 -25
-12 3 -24 5 -26 5 -2 1 3 9 11 19 9 9 31 59 49 110 18 50 39 92 45 92 7 0 27
-44 45 -97z m214 12 c31 -38 60 -70 63 -70 3 0 5 29 3 64 -2 47 -7 69 -19 78
-15 11 -11 12 27 13 42 0 43 -1 28 -18 -13 -15 -17 -39 -17 -110 0 -51 -4 -92
-8 -92 -5 0 -40 37 -78 83 l-69 82 -3 -70 c-2 -54 0 -72 12 -81 23 -17 20 -21
-19 -21 -19 0 -35 4 -35 9 0 4 5 8 10 8 6 0 10 37 10 90 0 71 -3 92 -15 96
-28 11 -15 21 19 15 26 -5 46 -21 91 -76z m441 -15 c18 -51 38 -98 44 -104 17
-17 11 -23 -25 -23 -30 0 -34 3 -29 19 11 35 -5 58 -41 58 -38 0 -61 -27 -51
-58 5 -14 0 -18 -19 -18 -25 0 -33 10 -16 20 8 5 14 21 61 149 12 32 26 57 32
55 6 -2 25 -46 44 -98z m-4793 83 c-16 -6 -18 -193 -3 -193 6 0 10 -4 10 -10
0 -5 -18 -9 -40 -8 -22 1 -40 5 -40 10 0 4 5 8 10 8 15 0 13 187 -2 193 -7 3
7 5 32 5 25 0 39 -2 33 -5z m655 -5 c17 -17 15 -68 -5 -90 -16 -17 -15 -21 15
-64 38 -53 38 -54 11 -49 -26 5 -22 1 -48 53 -28 55 -51 56 -51 2 0 -22 5 -40
10 -40 6 0 10 -4 10 -8 0 -5 -16 -8 -35 -8 -35 1 -44 9 -25 21 14 9 13 168 -2
183 -9 9 1 12 48 12 33 0 65 -5 72 -12z m582 3 c0 -5 3 -18 7 -28 5 -15 2 -15
-19 5 -13 12 -32 22 -41 22 -15 0 -17 -13 -17 -95 0 -57 4 -95 10 -95 6 0 10
-4 10 -9 0 -5 -18 -8 -40 -8 -41 1 -52 10 -25 21 13 5 15 22 13 93 -3 81 -5
88 -25 91 -13 2 -27 -5 -37 -20 -15 -22 -16 -22 -16 -2 0 11 3 24 7 27 10 11
173 8 173 -2z m3353 2 c-16 -6 -18 -193 -3 -193 6 0 10 -4 10 -10 0 -5 -18
-10 -40 -10 -22 0 -40 5 -40 10 0 6 5 10 10 10 15 0 13 187 -2 193 -7 3 7 5
32 5 25 0 39 -2 33 -5z m-2819 -25 c45 -63 -25 -188 -104 -188 -74 0 -79 131
-6 192 31 26 91 24 110 -4z m-2787 -1475 c-1 -49 -3 -9 -3 87 0 96 2 136 3 88
2 -49 2 -127 0 -175z m6222 -133 l-2 -80 -83 0 -84 0 0 80 0 80 86 0 85 0 -2
-80z"/>
<path d="M3243 6233 c4 -666 6 -714 25 -803 73 -338 221 -601 486 -865 196
-194 472 -382 677 -459 l66 -25 81 33 c201 81 475 270 662 456 267 265 428
559 485 885 24 139 28 312 20 908 l-7 577 -1250 0 -1250 0 5 -707z m360 528
l27 -11 0 -147 0 -148 -60 -17 c-32 -10 -75 -18 -95 -18 l-35 0 0 158 0 158
43 22 c42 22 69 22 120 3z m188 -3 l49 -23 0 -157 0 -158 -48 0 c-27 0 -70 7
-95 16 l-48 16 3 151 3 151 40 12 c22 7 42 13 44 13 2 1 25 -9 52 -21z m629
-8 c0 -6 15 -9 32 -8 26 2 35 -2 43 -19 6 -15 18 -23 35 -23 30 0 50 -17 50
-41 0 -11 9 -19 23 -21 15 -2 23 -11 25 -28 2 -13 11 -29 20 -36 8 -6 13 -18
9 -27 -3 -8 3 -23 14 -33 10 -9 19 -24 19 -33 0 -8 -51 37 -112 101 -98 101
-120 118 -167 133 -60 20 -175 17 -224 -6 -34 -15 -44 -7 -28 27 11 24 15 26
51 20 22 -3 41 -2 45 4 8 13 48 13 62 -1 8 -8 19 -7 39 4 29 15 64 8 64 -13z
m893 11 l28 -11 -3 -146 -3 -147 -55 -19 c-30 -10 -73 -17 -95 -16 l-40 3 -3
155 -2 155 47 22 c49 22 75 23 126 4z m188 -3 l49 -23 0 -157 0 -158 -48 0
c-27 0 -70 7 -95 16 l-48 16 3 151 3 150 35 13 c47 17 46 17 101 -8z m-2081
-198 l0 -170 95 0 c57 0 95 -4 95 -10 0 -5 11 -10 24 -10 14 0 28 5 31 10 3 6
48 10 101 10 l94 0 0 170 c0 163 1 170 20 170 13 0 20 -7 20 -20 0 -11 6 -29
12 -40 10 -15 10 -22 0 -32 -19 -19 -16 -177 3 -198 14 -15 14 -18 0 -30 -8
-7 -15 -23 -15 -36 l0 -24 -260 0 -260 0 0 22 c0 12 -7 29 -15 38 -14 15 -14
18 0 30 22 18 22 182 0 200 -14 12 -14 15 0 36 8 13 15 30 15 39 0 8 9 15 20
15 19 0 20 -7 20 -170z m1710 0 l0 -170 95 0 c57 0 95 -4 95 -10 0 -5 11 -10
24 -10 14 0 28 5 31 10 3 6 48 10 101 10 l94 0 0 170 c0 163 1 170 20 170 14
0 20 -7 20 -22 0 -12 7 -30 16 -40 16 -16 16 -18 0 -24 -23 -9 -24 -179 -1
-204 14 -15 14 -18 0 -30 -8 -7 -15 -23 -15 -36 l0 -24 -260 0 c-250 0 -260 1
-260 19 0 11 -7 27 -16 36 -15 15 -15 17 0 34 23 25 23 177 -1 203 -15 17 -15
19 0 36 10 10 17 26 17 35 0 10 8 17 20 17 19 0 20 -7 20 -170z m-991 115 c26
-56 27 -89 0 -126 -25 -36 -19 -36 29 -4 47 32 58 32 93 -6 37 -39 36 -50 -1
-72 -35 -21 -38 -37 -10 -44 28 -7 26 -14 -17 -55 -62 -60 -146 -86 -173 -53
-10 13 -9 15 9 15 40 0 134 51 120 65 -4 3 -24 -5 -44 -20 -39 -26 -117 -35
-130 -15 -4 6 3 25 14 44 l21 33 -21 27 c-19 24 -20 31 -10 73 17 65 79 183
96 183 2 0 12 -20 24 -45z m299 9 c35 -17 74 -51 120 -102 174 -199 264 -250
327 -187 60 59 -5 137 -73 89 -23 -16 -23 -16 -20 22 3 33 8 42 38 56 29 15
36 25 42 60 8 45 29 72 67 83 22 7 23 5 16 -27 -10 -43 -8 -89 6 -140 27 -102
4 -175 -69 -215 -91 -52 -173 -38 -364 59 -115 59 -127 63 -190 63 -38 0 -68
3 -68 8 0 4 3 7 8 7 4 0 15 7 26 15 18 13 18 15 -4 50 -29 47 -16 65 34 47 20
-8 51 -10 75 -6 37 6 41 4 52 -20 8 -16 20 -26 34 -26 26 0 45 -18 45 -42 0
-11 7 -18 20 -18 13 0 25 -11 33 -27 6 -16 24 -41 39 -56 25 -26 28 -27 28 -8
0 11 -9 26 -20 34 -10 7 -24 26 -30 41 -5 15 -20 30 -31 33 -11 3 -25 16 -30
30 -5 15 -19 26 -38 29 -17 4 -33 16 -40 30 -10 22 -17 25 -63 25 -29 -1 -69
-1 -88 -1 -19 0 -57 -1 -84 -3 -27 -1 -49 2 -51 8 -1 5 -7 25 -13 44 -7 19
-10 37 -8 39 16 15 92 31 152 32 56 0 80 -5 122 -26z m1267 -824 c-1 -376 -22
-509 -114 -724 l-22 -49 -112 109 c-62 59 -166 160 -232 224 -66 64 -256 247
-422 408 -166 161 -305 292 -308 292 -8 0 -522 -494 -962 -924 l-112 -110 -31
68 c-38 84 -75 220 -95 351 -15 103 -22 634 -8 648 3 4 549 6 1212 5 l1206 -3
0 -295z m-1114 -13 c52 -27 103 -98 112 -155 14 -85 -39 -184 -117 -221 -123
-57 -263 9 -298 142 -44 168 146 316 303 234z m-575 -533 c47 -24 100 -98 109
-153 13 -76 -27 -162 -96 -208 -56 -37 -148 -44 -205 -15 -165 85 -164 305 1
384 50 24 135 20 191 -8z m1142 11 c51 -22 81 -52 108 -110 39 -82 29 -152
-32 -224 -80 -96 -241 -94 -322 4 -138 168 45 413 246 330z m-362 -350 c83
-88 204 -216 268 -285 l117 -125 -52 -48 c-150 -139 -422 -315 -574 -372 l-60
-23 -55 21 c-152 56 -417 227 -578 372 l-52 47 31 37 c18 20 100 108 183 196
83 88 184 196 226 240 41 44 113 120 160 168 l85 88 75 -78 c42 -43 143 -150
226 -238z"/>
<path d="M4084 6465 c-7 -17 2 -45 13 -45 19 1 45 30 40 45 -8 19 -46 20 -53
0z"/>
<path d="M4365 3027 c-159 -64 -197 -115 -152 -205 28 -58 117 -68 190 -22
l47 30 0 115 c0 63 -1 115 -2 115 -2 0 -39 -15 -83 -33z"/>
<path d="M6055 3365 c-93 -33 -150 -156 -149 -325 0 -215 90 -337 235 -317 83
11 141 82 166 203 13 64 14 93 4 176 -18 158 -67 243 -156 267 -49 13 -51 13
-100 -4z"/>
<path d="M6491 2239 c-15 -44 -14 -49 12 -49 33 0 37 8 24 38 -18 43 -24 45
-36 11z"/>
<path d="M7152 2250 c-14 -42 -12 -54 10 -57 25 -4 29 10 14 53 l-13 39 -11
-35z"/>
<path d="M3000 2264 c0 -44 1 -45 28 -42 21 2 28 9 30 31 4 33 -13 57 -39 57
-16 0 -19 -8 -19 -46z"/>
<path d="M4101 2273 c-26 -33 -33 -59 -29 -109 2 -30 8 -40 24 -42 29 -4 52
27 64 87 16 84 -16 119 -59 64z"/>
</g>
</svg>
